# xmcd CD database file
#
# Track frame offsets:
#	150
#	21050
#	37014
#	55367
#	68852
#	83488
#	96776
#	115045
#	129312
#	142703
#	160071
#	174472
#	193442
#	210953
#
# Disc length: 2942 seconds
#
# Revision: 0
# Processed by: cddbd v1.5.2PL0 Copyright (c) Steve Scherf et al.
# Submitted via: CDex 1.50
#
DISCID=b30b7c0e
DTITLE=João Paulo E Daniel  -  saudade
DYEAR=2009
DGENRE=Country
TTITLE0=Estou Apaixonado (Estoy Enamorado) 
TTITLE1=Rosto Molhado 
TTITLE2=Ela Tem O Dom De Me Fazer Chorar 
TTITLE3=Só Dá Você Na Minha Vida 
TTITLE4=Alguem
TTITLE5=Gosto De Hortela
TTITLE6=Te Cuida Coraçao 
TTITLE7=Doida Demais
TTITLE8=Vai E Volta
TTITLE9=Hoje Eu Sei
TTITLE10=Fogo De Amor
TTITLE11=Perilume
TTITLE12=Acabou
TTITLE13=Noite Dos Namorados 
EXTD=YEAR: 2009
EXTT0=
EXTT1=
EXTT2=
EXTT3=
EXTT4=
EXTT5=
EXTT6=
EXTT7=
EXTT8=
EXTT9=
EXTT10=
EXTT11=
EXTT12=
EXTT13=
PLAYORDER=
